<!DOCTYPE svg PUBLIC "-//W3C//DTD SVG 1.1//EN" "http://www.w3.org/Graphics/SVG/1.1/DTD/svg11.dtd">
<!-- Uploaded to: SVG Repo, www.svgrepo.com, Transformed by: SVG Repo Mixer Tools -->
<svg width="800px" height="800px" viewBox="0 0 48 48" xmlns="http://www.w3.org/2000/svg" fill="#000000">
<g id="SVGRepo_bgCarrier" stroke-width="0"/>
<g id="SVGRepo_tracerCarrier" stroke-linecap="round" stroke-linejoin="round"/>
<g id="SVGRepo_iconCarrier">
<defs>
<style>.a{fill:#000000;}.b{fill:none;stroke:#000000;stroke-linecap:round;stroke-linejoin:round;}</style>
</defs>
<circle class="a" cx="17.57" cy="12.56" r="0.75"/>
<path class="b" d="M24,22.64V14.06a1.82,1.82,0,0,1,1.83-1.82h0a2.09,2.09,0,0,1,1.83.76"/>
<line class="b" x1="20.45" y1="15.75" x2="26.25" y2="15.75"/>
<path class="b" d="M22.86,12.28a3.65,3.65,0,0,0-.59,0h0a1.81,1.81,0,0,0-1.82,1.82v8.58H17.57V15.75H14.7v7.8a2.59,2.59,0,0,1-2.6,2.6h0a2.59,2.59,0,0,1-1.84-.76"/>
<rect class="b" x="9.5" y="15.75" width="5.2" height="6.89" rx="2.6" transform="translate(24.2 38.39) rotate(180)"/>
<rect class="b" x="15.25" y="25.94" width="5.2" height="6.89" rx="2.6" transform="translate(35.69 58.78) rotate(-180)"/>
<path class="b" d="M34.84,32.84V24.25a1.82,1.82,0,0,1,1.82-1.82h0a2.13,2.13,0,0,1,1.84.76"/>
<line class="b" x1="31.25" y1="25.94" x2="37.06" y2="25.94"/>
<path class="b" d="M20.45,25.94v7.81a2.61,2.61,0,0,1-2.6,2.6h0A2.59,2.59,0,0,1,16,35.59"/>
<path class="b" d="M28.38,30.24a2.6,2.6,0,0,1-2.6,2.6h0a2.61,2.61,0,0,1-2.6-2.6V28.55a2.61,2.61,0,0,1,2.6-2.61h0a2.6,2.6,0,0,1,2.6,2.61"/>
<path class="b" d="M33.66,22.48a3.42,3.42,0,0,0-.59-.05h0a1.83,1.83,0,0,0-1.82,1.82v8.59H28.38v-6.9"/>
<path class="b" d="M40.5,5.5H7.5a2,2,0,0,0-2,2v33a2,2,0,0,0,2,2h33a2,2,0,0,0,2-2V7.5A2,2,0,0,0,40.5,5.5Z"/>
</g>
</svg>